name C:\Users\antoi\Documents\MyRepositories\upper-imu-dc\Results\main_tracking\Case_71\SHRUG01_angularVelocities_groundFrame.mot
datacolumns 4
datarows 141
range 0.71000000 2.11000000
endheader 
time	radius_imu_x	radius_imu_y	radius_imu_z	
          0.71000000	         -0.07007020	          0.32182098	         -0.10300580	
          0.72000000	         -0.07004847	          0.31911127	         -0.10223334	
          0.73000000	         -0.06567374	          0.31414507	         -0.10076715	
          0.74000000	         -0.05982454	          0.30536558	         -0.09847428	
          0.75000000	         -0.05353197	          0.29201882	         -0.09527943	
          0.76000000	         -0.04721685	          0.27383889	         -0.09118035	
          0.77000000	         -0.04110177	          0.25097769	         -0.08625025	
          0.78000000	         -0.03538151	          0.22395012	         -0.08062288	
          0.79000000	         -0.03026621	          0.19354059	         -0.07449065	
          0.80000000	         -0.02598877	          0.16070948	         -0.06808465	
          0.81000000	         -0.02279883	          0.12652732	         -0.06165097	
          0.82000000	         -0.02094235	          0.09207046	         -0.05542932	
          0.83000000	         -0.02064420	          0.05834265	         -0.04962425	
          0.84000000	         -0.02209357	          0.02623546	         -0.04439006	
          0.85000000	         -0.02543277	         -0.00350459	         -0.03981876	
          0.86000000	         -0.03074873	         -0.03028591	         -0.03593553	
          0.87000000	         -0.03807016	         -0.05365408	         -0.03270075	
          0.88000000	         -0.04736843	         -0.07325887	         -0.03001620	
          0.89000000	         -0.05855851	         -0.08882756	         -0.02773318	
          0.90000000	         -0.07150547	         -0.10013101	         -0.02566583	
          0.91000000	         -0.08603254	         -0.10696036	         -0.02360749	
          0.92000000	         -0.10192761	         -0.10912635	         -0.02134648	
          0.93000000	         -0.11895243	         -0.10647203	         -0.01868096	
          0.94000000	         -0.13685271	         -0.09889858	         -0.01543237	
          0.95000000	         -0.15536931	         -0.08639257	         -0.01145799	
          0.96000000	         -0.17424816	         -0.06905820	         -0.00665747	
          0.97000000	         -0.19324640	         -0.04715499	         -0.00096970	
          0.98000000	         -0.21213657	         -0.02112404	          0.00563593	
          0.99000000	         -0.23071073	          0.00841515	          0.01316841	
          1.00000000	         -0.24878616	          0.04070788	          0.02161785	
          1.01000000	         -0.26621374	          0.07494672	          0.03094783	
          1.02000000	         -0.28288793	          0.11037820	          0.04107748	
          1.03000000	         -0.29875557	          0.14640776	          0.05185861	
          1.04000000	         -0.31381933	          0.18266919	          0.06305929	
          1.05000000	         -0.32813260	          0.21903417	          0.07436425	
          1.06000000	         -0.34178580	          0.25556235	          0.08539648	
          1.07000000	         -0.35488685	          0.29241486	          0.09575544	
          1.08000000	         -0.36753989	          0.32975945	          0.10506259	
          1.09000000	         -0.37982506	          0.36768762	          0.11300486	
          1.10000000	         -0.39178154	          0.40615322	          0.11936943	
          1.11000000	         -0.40339479	          0.44493335	          0.12406653	
          1.12000000	         -0.41458877	          0.48361080	          0.12713966	
          1.13000000	         -0.42522418	          0.52158183	          0.12876231	
          1.14000000	         -0.43510367	          0.55809549	          0.12921936	
          1.15000000	         -0.44398506	          0.59232737	          0.12887162	
          1.16000000	         -0.45160182	          0.62347743	          0.12810646	
          1.17000000	         -0.45768845	          0.65087046	          0.12728250	
          1.18000000	         -0.46200648	          0.67403774	          0.12667696	
          1.19000000	         -0.46436676	          0.69275894	          0.12644397	
          1.20000000	         -0.46464452	          0.70706288	          0.12659212	
          1.21000000	         -0.46278487	          0.71718904	          0.12698288	
          1.22000000	         -0.45879793	          0.72351896	          0.12735236	
          1.23000000	         -0.45274704	          0.72650243	          0.12735537	
          1.24000000	         -0.44473974	          0.72659516	          0.12661575	
          1.25000000	         -0.43491407	          0.72419395	          0.12477692	
          1.26000000	         -0.42341518	          0.71958842	          0.12153219	
          1.27000000	         -0.41038382	          0.71292045	          0.11665749	
          1.28000000	         -0.39596679	          0.70420023	          0.11006439	
          1.29000000	         -0.38036640	          0.69336639	          0.10183149	
          1.30000000	         -0.36385023	          0.68028136	          0.09217829	
          1.31000000	         -0.34661134	          0.66484017	          0.08139345	
          1.32000000	         -0.32874166	          0.64702506	          0.06979035	
          1.33000000	         -0.31031864	          0.62691592	          0.05769552	
          1.34000000	         -0.29146890	          0.60471195	          0.04542231	
          1.35000000	         -0.27237126	          0.58068042	          0.03325206	
          1.36000000	         -0.25322653	          0.55515874	          0.02144913	
          1.37000000	         -0.23427056	          0.52853167	          0.01019463	
          1.38000000	         -0.21570074	          0.50105157	         -0.00030632	
          1.39000000	         -0.19772089	          0.47311516	         -0.01005105	
          1.40000000	         -0.18044077	          0.44476456	         -0.01873204	
          1.41000000	         -0.16395370	          0.41608999	         -0.02621686	
          1.42000000	         -0.14830524	          0.38714473	         -0.03247176	
          1.43000000	         -0.13341643	          0.35761499	         -0.03716341	
          1.44000000	         -0.11919935	          0.32721396	         -0.04007414	
          1.45000000	         -0.10554349	          0.29561633	         -0.04096255	
          1.46000000	         -0.09235551	          0.26262393	         -0.03967587	
          1.47000000	         -0.07957939	          0.22821552	         -0.03618216	
          1.48000000	         -0.06719963	          0.19256131	         -0.03055936	
          1.49000000	         -0.05523732	          0.15601684	         -0.02299135	
          1.50000000	         -0.04373726	          0.11904897	         -0.01373858	
          1.51000000	         -0.03275308	          0.08217739	         -0.00311382	
          1.52000000	         -0.02233347	          0.04593404	          0.00853772	
          1.53000000	         -0.01251121	          0.01083514	          0.02085401	
          1.54000000	         -0.00329698	         -0.02263033	          0.03346396	
          1.55000000	          0.00532166	         -0.05400254	          0.04599119	
          1.56000000	          0.01337630	         -0.08284500	          0.05805573	
          1.57000000	          0.02091128	         -0.10874096	          0.06927859	
          1.58000000	          0.02797754	         -0.13130004	          0.07929293	
          1.59000000	          0.03462869	         -0.15017950	          0.08776247	
          1.60000000	          0.04092039	         -0.16511839	          0.09440414	
          1.61000000	          0.04691381	         -0.17598052	          0.09901194	
          1.62000000	          0.05268146	         -0.18279592	          0.10147571	
          1.63000000	          0.05831236	         -0.18578557	          0.10178851	
          1.64000000	          0.06391465	         -0.18536493	          0.10004199	
          1.65000000	          0.06961552	         -0.18212748	          0.09641343	
          1.66000000	          0.07555784	         -0.17681224	          0.09114793	
          1.67000000	          0.08189396	         -0.17026022	          0.08453931	
          1.68000000	          0.08877711	         -0.16336516	          0.07691190	
          1.69000000	          0.09635118	         -0.15702290	          0.06860345	
          1.70000000	          0.10473988	         -0.15208127	          0.05994876	
          1.71000000	          0.11403644	         -0.14929269	          0.05126360	
          1.72000000	          0.12429498	         -0.14927153	          0.04282961	
          1.73000000	          0.13552509	         -0.15245850	          0.03488118	
          1.74000000	          0.14769053	         -0.15909256	          0.02759464	
          1.75000000	          0.16071255	         -0.16919033	          0.02108050	
          1.76000000	          0.17447727	         -0.18253215	          0.01537856	
          1.77000000	          0.18884479	         -0.19865357	          0.01045555	
          1.78000000	          0.20365735	         -0.21684435	          0.00620496	
          1.79000000	          0.21874461	         -0.23616081	          0.00245040	
          1.80000000	          0.23392596	         -0.25546026	         -0.00104463	
          1.81000000	          0.24901181	         -0.27346577	         -0.00455660	
          1.82000000	          0.26380726	         -0.28886325	         -0.00836998	
          1.83000000	          0.27812082	         -0.30042696	         -0.01273391	
          1.84000000	          0.29177890	         -0.30715977	         -0.01781346	
          1.85000000	          0.30464447	         -0.30843344	         -0.02364305	
          1.86000000	          0.31663513	         -0.30410945	         -0.03009357	
          1.87000000	          0.32773517	         -0.29462995	         -0.03686040	
          1.88000000	          0.33799632	         -0.28106590	         -0.04347595	
          1.89000000	          0.34751878	         -0.26502833	         -0.04937861	
          1.90000000	          0.35643354	         -0.24861381	         -0.05393486	
          1.91000000	          0.36485571	         -0.23409322	         -0.05657693	
          1.92000000	          0.37286687	         -0.22370860	         -0.05681676	
          1.93000000	          0.38052040	         -0.21968264	         -0.05415855	
          1.94000000	          0.38778944	         -0.22390783	         -0.04835949	
          1.95000000	          0.39437898	         -0.23691698	         -0.04022239	
          1.96000000	          0.40016993	         -0.25956629	         -0.02982279	
          1.97000000	          0.40512137	         -0.29270403	         -0.01700784	
          1.98000000	          0.40900658	         -0.33578846	         -0.00259878	
          1.99000000	          0.41163453	         -0.38789801	          0.01259216	
          2.00000000	          0.41287570	         -0.44790081	          0.02795546	
          2.01000000	          0.41267664	         -0.51423017	          0.04297990	
          2.02000000	          0.41104901	         -0.58506337	          0.05720837	
          2.03000000	          0.40806542	         -0.65846557	          0.07027478	
          2.04000000	          0.40383653	         -0.73230857	          0.08191287	
          2.05000000	          0.39844464	         -0.80426821	          0.09199838	
          2.06000000	          0.39189534	         -0.87188731	          0.10051086	
          2.07000000	          0.38414695	         -0.93269129	          0.10744110	
          2.08000000	          0.37513166	         -0.98425317	          0.11277772	
          2.09000000	          0.36463157	         -1.02438890	          0.11651100	
          2.10000000	          0.35227192	         -1.05126251	          0.11867367	
          2.11000000	          0.33777610	         -1.06346928	          0.11927620	
